# xmcd
#
# Track frame offsets:
#	150
#	19850
#	43275
#	68355
#	83185
#	104475
#	126592
#	148078
#	167550
#	188516
#
# Disc length: 3130 seconds
#
# Revision: 1
# Processed by: cddbd v1.5.2PL0 Copyright (c) Steve Scherf et al.
# Submitted via: audiograbber 1.83.01
#
DISCID=880c380a
DTITLE=Les Richardson - Wlak away
DYEAR=1999
DGENRE=Country
TTITLE0=Look at love
TTITLE1=Always be there
TTITLE2=You are my light
TTITLE3=Lonely somehow
TTITLE4=You know me
TTITLE5=Walk away
TTITLE6=Tears and dreams
TTITLE7=She's here
TTITLE8=Night and day
TTITLE9=Back home
EXTD=
EXTT0=
EXTT1=
EXTT2=
EXTT3=
EXTT4=
EXTT5=
EXTT6=
EXTT7=
EXTT8=
EXTT9=
PLAYORDER=
